<svg width="96" height="96" viewBox="0 0 96 96" xmlns="http://www.w3.org/2000/svg" role="img" aria-label="PragAC">
  <defs><clipPath id="sq"><rect x="6" y="6" width="84" height="84" rx="22"></rect></clipPath></defs>
  <g clip-path="url(#sq)"><rect x="6.00" y="6" width="3.73" height="84" fill="#0a66c9"></rect><rect x="9.23" y="6" width="3.73" height="84" fill="#bfe1ff"></rect><rect x="12.46" y="6" width="3.73" height="84" fill="#86c8ff"></rect><rect x="15.69" y="6" width="3.73" height="84" fill="#9bd2ff"></rect><rect x="18.92" y="6" width="3.73" height="84" fill="#bfe1ff"></rect><rect x="22.15" y="6" width="3.73" height="84" fill="#5fb6ff"></rect><rect x="25.38" y="6" width="3.73" height="84" fill="#86c8ff"></rect><rect x="28.62" y="6" width="3.73" height="84" fill="#86c8ff"></rect><rect x="31.85" y="6" width="3.73" height="84" fill="#bfe1ff"></rect><rect x="35.08" y="6" width="3.73" height="84" fill="#cde8ff"></rect><rect x="38.31" y="6" width="3.73" height="84" fill="#bfe1ff"></rect><rect x="41.54" y="6" width="3.73" height="84" fill="#cde8ff"></rect><rect x="44.77" y="6" width="3.73" height="84" fill="#bfe1ff"></rect><rect x="48.00" y="6" width="3.73" height="84" fill="#cde8ff"></rect><rect x="51.23" y="6" width="3.73" height="84" fill="#cde8ff"></rect><rect x="54.46" y="6" width="3.73" height="84" fill="#cde8ff"></rect><rect x="57.69" y="6" width="3.73" height="84" fill="#cde8ff"></rect><rect x="60.92" y="6" width="3.73" height="84" fill="#ffae88"></rect><rect x="64.15" y="6" width="3.73" height="84" fill="#ffae88"></rect><rect x="67.38" y="6" width="3.73" height="84" fill="#ff8450"></rect><rect x="70.62" y="6" width="3.73" height="84" fill="#ff8450"></rect><rect x="73.85" y="6" width="3.73" height="84" fill="#f5380a"></rect><rect x="77.08" y="6" width="3.73" height="84" fill="#d3260a"></rect><rect x="80.31" y="6" width="3.73" height="84" fill="#bb1f0c"></rect><rect x="83.54" y="6" width="3.73" height="84" fill="#a81b0c"></rect><rect x="86.77" y="6" width="3.73" height="84" fill="#7e1409"></rect></g>
</svg>