<svg xmlns="http://www.w3.org/2000/svg" viewBox="0 0 1800 100" preserveAspectRatio="none" role="img" aria-label="PragAC warming stripes — ice to fire"><rect x="0.00" y="0" width="12.60" height="100" fill="#86c8ff"></rect><rect x="12.00" y="0" width="12.60" height="100" fill="#cde8ff"></rect><rect x="24.00" y="0" width="12.60" height="100" fill="#e2f1ff"></rect><rect x="36.00" y="0" width="12.60" height="100" fill="#cde8ff"></rect><rect x="48.00" y="0" width="12.60" height="100" fill="#9bd2ff"></rect><rect x="60.00" y="0" width="12.60" height="100" fill="#cde8ff"></rect><rect x="72.00" y="0" width="12.60" height="100" fill="#cde8ff"></rect><rect x="84.00" y="0" width="12.60" height="100" fill="#cde8ff"></rect><rect x="96.00" y="0" width="12.60" height="100" fill="#86c8ff"></rect><rect x="108.00" y="0" width="12.60" height="100" fill="#bfe1ff"></rect><rect x="120.00" y="0" width="12.60" height="100" fill="#9bd2ff"></rect><rect x="132.00" y="0" width="12.60" height="100" fill="#86c8ff"></rect><rect x="144.00" y="0" width="12.60" height="100" fill="#bfe1ff"></rect><rect x="156.00" y="0" width="12.60" height="100" fill="#9bd2ff"></rect><rect x="168.00" y="0" width="12.60" height="100" fill="#e2f1ff"></rect><rect x="180.00" y="0" width="12.60" height="100" fill="#bfe1ff"></rect><rect x="192.00" y="0" width="12.60" height="100" fill="#9bd2ff"></rect><rect x="204.00" y="0" width="12.60" height="100" fill="#9bd2ff"></rect><rect x="216.00" y="0" width="12.60" height="100" fill="#9bd2ff"></rect><rect x="228.00" y="0" width="12.60" height="100" fill="#9bd2ff"></rect><rect x="240.00" y="0" width="12.60" height="100" fill="#9bd2ff"></rect><rect x="252.00" y="0" width="12.60" height="100" fill="#bfe1ff"></rect><rect x="264.00" y="0" width="12.60" height="100" fill="#cde8ff"></rect><rect x="276.00" y="0" width="12.60" height="100" fill="#9bd2ff"></rect><rect x="288.00" y="0" width="12.60" height="100" fill="#cde8ff"></rect><rect x="300.00" y="0" width="12.60" height="100" fill="#cde8ff"></rect><rect x="312.00" y="0" width="12.60" height="100" fill="#e2f1ff"></rect><rect x="324.00" y="0" width="12.60" height="100" fill="#bfe1ff"></rect><rect x="336.00" y="0" width="12.60" height="100" fill="#bfe1ff"></rect><rect x="348.00" y="0" width="12.60" height="100" fill="#e2f1ff"></rect><rect x="360.00" y="0" width="12.60" height="100" fill="#9bd2ff"></rect><rect x="372.00" y="0" width="12.60" height="100" fill="#9bd2ff"></rect><rect x="384.00" y="0" width="12.60" height="100" fill="#cde8ff"></rect><rect x="396.00" y="0" width="12.60" height="100" fill="#e2f1ff"></rect><rect x="408.00" y="0" width="12.60" height="100" fill="#cde8ff"></rect><rect x="420.00" y="0" width="12.60" height="100" fill="#9bd2ff"></rect><rect x="432.00" y="0" width="12.60" height="100" fill="#bfe1ff"></rect><rect x="444.00" y="0" width="12.60" height="100" fill="#9bd2ff"></rect><rect x="456.00" y="0" width="12.60" height="100" fill="#bfe1ff"></rect><rect x="468.00" y="0" width="12.60" height="100" fill="#cde8ff"></rect><rect x="480.00" y="0" width="12.60" height="100" fill="#bfe1ff"></rect><rect x="492.00" y="0" width="12.60" height="100" fill="#9bd2ff"></rect><rect x="504.00" y="0" width="12.60" height="100" fill="#bfe1ff"></rect><rect x="516.00" y="0" width="12.60" height="100" fill="#cde8ff"></rect><rect x="528.00" y="0" width="12.60" height="100" fill="#cde8ff"></rect><rect x="540.00" y="0" width="12.60" height="100" fill="#bfe1ff"></rect><rect x="552.00" y="0" width="12.60" height="100" fill="#bfe1ff"></rect><rect x="564.00" y="0" width="12.60" height="100" fill="#e2f1ff"></rect><rect x="576.00" y="0" width="12.60" height="100" fill="#e2f1ff"></rect><rect x="588.00" y="0" width="12.60" height="100" fill="#bfe1ff"></rect><rect x="600.00" y="0" width="12.60" height="100" fill="#bfe1ff"></rect><rect x="612.00" y="0" width="12.60" height="100" fill="#bfe1ff"></rect><rect x="624.00" y="0" width="12.60" height="100" fill="#9bd2ff"></rect><rect x="636.00" y="0" width="12.60" height="100" fill="#e2f1ff"></rect><rect x="648.00" y="0" width="12.60" height="100" fill="#e2f1ff"></rect><rect x="660.00" y="0" width="12.60" height="100" fill="#9bd2ff"></rect><rect x="672.00" y="0" width="12.60" height="100" fill="#cde8ff"></rect><rect x="684.00" y="0" width="12.60" height="100" fill="#ecf6ff"></rect><rect x="696.00" y="0" width="12.60" height="100" fill="#bfe1ff"></rect><rect x="708.00" y="0" width="12.60" height="100" fill="#bfe1ff"></rect><rect x="720.00" y="0" width="12.60" height="100" fill="#bfe1ff"></rect><rect x="732.00" y="0" width="12.60" height="100" fill="#bfe1ff"></rect><rect x="744.00" y="0" width="12.60" height="100" fill="#bfe1ff"></rect><rect x="756.00" y="0" width="12.60" height="100" fill="#cde8ff"></rect><rect x="768.00" y="0" width="12.60" height="100" fill="#ecf6ff"></rect><rect x="780.00" y="0" width="12.60" height="100" fill="#bfe1ff"></rect><rect x="792.00" y="0" width="12.60" height="100" fill="#e2f1ff"></rect><rect x="804.00" y="0" width="12.60" height="100" fill="#9bd2ff"></rect><rect x="816.00" y="0" width="12.60" height="100" fill="#bfe1ff"></rect><rect x="828.00" y="0" width="12.60" height="100" fill="#bfe1ff"></rect><rect x="840.00" y="0" width="12.60" height="100" fill="#9bd2ff"></rect><rect x="852.00" y="0" width="12.60" height="100" fill="#ecf6ff"></rect><rect x="864.00" y="0" width="12.60" height="100" fill="#e2f1ff"></rect><rect x="876.00" y="0" width="12.60" height="100" fill="#e2f1ff"></rect><rect x="888.00" y="0" width="12.60" height="100" fill="#ecf6ff"></rect><rect x="900.00" y="0" width="12.60" height="100" fill="#ecf6ff"></rect><rect x="912.00" y="0" width="12.60" height="100" fill="#cde8ff"></rect><rect x="924.00" y="0" width="12.60" height="100" fill="#cde8ff"></rect><rect x="936.00" y="0" width="12.60" height="100" fill="#9bd2ff"></rect><rect x="948.00" y="0" width="12.60" height="100" fill="#ecf6ff"></rect><rect x="960.00" y="0" width="12.60" height="100" fill="#bfe1ff"></rect><rect x="972.00" y="0" width="12.60" height="100" fill="#e2f1ff"></rect><rect x="984.00" y="0" width="12.60" height="100" fill="#bfe1ff"></rect><rect x="996.00" y="0" width="12.60" height="100" fill="#cde8ff"></rect><rect x="1008.00" y="0" width="12.60" height="100" fill="#bfe1ff"></rect><rect x="1020.00" y="0" width="12.60" height="100" fill="#cde8ff"></rect><rect x="1032.00" y="0" width="12.60" height="100" fill="#bfe1ff"></rect><rect x="1044.00" y="0" width="12.60" height="100" fill="#bfe1ff"></rect><rect x="1056.00" y="0" width="12.60" height="100" fill="#e2f1ff"></rect><rect x="1068.00" y="0" width="12.60" height="100" fill="#e2f1ff"></rect><rect x="1080.00" y="0" width="12.60" height="100" fill="#ecf6ff"></rect><rect x="1092.00" y="0" width="12.60" height="100" fill="#cde8ff"></rect><rect x="1104.00" y="0" width="12.60" height="100" fill="#e2f1ff"></rect><rect x="1116.00" y="0" width="12.60" height="100" fill="#e2f1ff"></rect><rect x="1128.00" y="0" width="12.60" height="100" fill="#f4f7fb"></rect><rect x="1140.00" y="0" width="12.60" height="100" fill="#f4f7fb"></rect><rect x="1152.00" y="0" width="12.60" height="100" fill="#fff0e9"></rect><rect x="1164.00" y="0" width="12.60" height="100" fill="#fff0e9"></rect><rect x="1176.00" y="0" width="12.60" height="100" fill="#ecf6ff"></rect><rect x="1188.00" y="0" width="12.60" height="100" fill="#fff0e9"></rect><rect x="1200.00" y="0" width="12.60" height="100" fill="#ffd9c6"></rect><rect x="1212.00" y="0" width="12.60" height="100" fill="#ecf6ff"></rect><rect x="1224.00" y="0" width="12.60" height="100" fill="#ffd9c6"></rect><rect x="1236.00" y="0" width="12.60" height="100" fill="#ffc0a3"></rect><rect x="1248.00" y="0" width="12.60" height="100" fill="#fff0e9"></rect><rect x="1260.00" y="0" width="12.60" height="100" fill="#ffd9c6"></rect><rect x="1272.00" y="0" width="12.60" height="100" fill="#f4f7fb"></rect><rect x="1284.00" y="0" width="12.60" height="100" fill="#ffae88"></rect><rect x="1296.00" y="0" width="12.60" height="100" fill="#ffc0a3"></rect><rect x="1308.00" y="0" width="12.60" height="100" fill="#ffd9c6"></rect><rect x="1320.00" y="0" width="12.60" height="100" fill="#ffd9c6"></rect><rect x="1332.00" y="0" width="12.60" height="100" fill="#ff9268"></rect><rect x="1344.00" y="0" width="12.60" height="100" fill="#ffae88"></rect><rect x="1356.00" y="0" width="12.60" height="100" fill="#ffae88"></rect><rect x="1368.00" y="0" width="12.60" height="100" fill="#ff9268"></rect><rect x="1380.00" y="0" width="12.60" height="100" fill="#ffc0a3"></rect><rect x="1392.00" y="0" width="12.60" height="100" fill="#ffae88"></rect><rect x="1404.00" y="0" width="12.60" height="100" fill="#ffae88"></rect><rect x="1416.00" y="0" width="12.60" height="100" fill="#ff9268"></rect><rect x="1428.00" y="0" width="12.60" height="100" fill="#ffae88"></rect><rect x="1440.00" y="0" width="12.60" height="100" fill="#ff551f"></rect><rect x="1452.00" y="0" width="12.60" height="100" fill="#ff9268"></rect><rect x="1464.00" y="0" width="12.60" height="100" fill="#ff551f"></rect><rect x="1476.00" y="0" width="12.60" height="100" fill="#ff9268"></rect><rect x="1488.00" y="0" width="12.60" height="100" fill="#ff551f"></rect><rect x="1500.00" y="0" width="12.60" height="100" fill="#ff6a36"></rect><rect x="1512.00" y="0" width="12.60" height="100" fill="#e02d0a"></rect><rect x="1524.00" y="0" width="12.60" height="100" fill="#ff551f"></rect><rect x="1536.00" y="0" width="12.60" height="100" fill="#ff6a36"></rect><rect x="1548.00" y="0" width="12.60" height="100" fill="#f5380a"></rect><rect x="1560.00" y="0" width="12.60" height="100" fill="#e02d0a"></rect><rect x="1572.00" y="0" width="12.60" height="100" fill="#ff6a36"></rect><rect x="1584.00" y="0" width="12.60" height="100" fill="#e02d0a"></rect><rect x="1596.00" y="0" width="12.60" height="100" fill="#e02d0a"></rect><rect x="1608.00" y="0" width="12.60" height="100" fill="#e02d0a"></rect><rect x="1620.00" y="0" width="12.60" height="100" fill="#bb1f0c"></rect><rect x="1632.00" y="0" width="12.60" height="100" fill="#f5380a"></rect><rect x="1644.00" y="0" width="12.60" height="100" fill="#d3260a"></rect><rect x="1656.00" y="0" width="12.60" height="100" fill="#e02d0a"></rect><rect x="1668.00" y="0" width="12.60" height="100" fill="#bb1f0c"></rect><rect x="1680.00" y="0" width="12.60" height="100" fill="#e02d0a"></rect><rect x="1692.00" y="0" width="12.60" height="100" fill="#bb1f0c"></rect><rect x="1704.00" y="0" width="12.60" height="100" fill="#bb1f0c"></rect><rect x="1716.00" y="0" width="12.60" height="100" fill="#d3260a"></rect><rect x="1728.00" y="0" width="12.60" height="100" fill="#7e1409"></rect><rect x="1740.00" y="0" width="12.60" height="100" fill="#a81b0c"></rect><rect x="1752.00" y="0" width="12.60" height="100" fill="#7e1409"></rect><rect x="1764.00" y="0" width="12.60" height="100" fill="#bb1f0c"></rect><rect x="1776.00" y="0" width="12.60" height="100" fill="#a81b0c"></rect><rect x="1788.00" y="0" width="12.60" height="100" fill="#7e1409"></rect></svg>